<svg height="1000" preserveAspectRatio="xMidYMid meet" viewBox="0 0 750 749.999995" width="1000" xmlns="http://www.w3.org/2000/svg" xmlns:xlink="http://www.w3.org/1999/xlink" zoomAndPan="magnify"><clipPath id="a"><path d="m59 58.617188h629v628.382812h-629zm0 0"/></clipPath><g clip-path="url(#a)"><path d="m594.261719 593.328125h-92.984375v-145.621094c0-34.722656-.621094-79.425781-48.363282-79.425781-48.429687 0-55.839843 37.835938-55.839843 76.898438v148.140624h-92.988281v-299.457031h89.269531v40.925781h1.25c1.109375-1.898437 2.28125-3.757812 3.515625-5.578124 1.238281-1.820313 2.53125-3.59375 3.886718-5.328126 1.355469-1.730468 2.769532-3.414062 4.238282-5.050781s2.992187-3.222656 4.566406-4.757812c1.578125-1.53125 3.203125-3.011719 4.878906-4.4375 1.675782-1.421875 3.398438-2.789063 5.164063-4.097657 1.769531-1.308593 3.578125-2.554687 5.433593-3.742187 1.851563-1.1875 3.738282-2.308594 5.667969-3.367187 1.925781-1.058594 3.886719-2.050782 5.882813-2.976563s4.019531-1.785156 6.070312-2.574219c2.050782-.792968 4.128906-1.511718 6.230469-2.160156 2.101563-.652344 4.222656-1.230469 6.363281-1.738281 2.140625-.503907 4.292969-.9375 6.460938-1.300781 2.171875-.363282 4.351562-.648438 6.539062-.863282 2.191406-.214844 4.382813-.355468 6.582032-.421875 2.199218-.066406 4.394531-.058593 6.59375.019531 94.246093 0 111.621093 61.992188 111.621093 142.640626zm-395.09375-340.398437c-1.769531 0-3.53125-.085938-5.289063-.257813-1.761718-.171875-3.507812-.429687-5.238281-.777344-1.734375-.34375-3.449219-.769531-5.136719-1.285156-1.691406-.511719-3.355468-1.105469-4.988281-1.78125s-3.226563-1.429687-4.785156-2.265625c-1.5625-.832031-3.074219-1.738281-4.546875-2.71875-1.46875-.984375-2.886719-2.035156-4.25-3.15625-1.367188-1.121094-2.675782-2.304688-3.925782-3.554688s-2.4375-2.558593-3.558593-3.921874c-1.121094-1.367188-2.171875-2.785157-3.15625-4.253907-.980469-1.46875-1.886719-2.984375-2.722657-4.542969-.832031-1.558593-1.585937-3.152343-2.261718-4.785156-.679688-1.632812-1.273438-3.292968-1.785156-4.984375-.515626-1.691406-.945313-3.40625-1.289063-5.136719-.34375-1.734374-.605469-3.480468-.777344-5.238281-.175781-1.757812-.261719-3.523437-.261719-5.289062 0-1.769531.085938-3.53125.261719-5.289063.171875-1.757812.429688-3.503906.773438-5.238281s.773437-3.445313 1.285156-5.136719 1.109375-3.355468 1.785156-4.988281 1.429688-3.226563 2.261719-4.785156c.835938-1.558594 1.742188-3.074219 2.722656-4.542969.980469-1.472656 2.03125-2.890625 3.152344-4.253906 1.121094-1.367188 2.308594-2.675782 3.554688-3.925782 1.25-1.25 2.558593-2.433593 3.925781-3.558593 1.363281-1.121094 2.78125-2.171875 4.25-3.152344 1.46875-.984375 2.984375-1.890625 4.542969-2.722656 1.558593-.835938 3.152343-1.589844 4.785156-2.265625 1.632812-.679688 3.296875-1.273438 4.988281-1.785156 1.691406-.515626 3.402344-.945313 5.136719-1.289063s3.476562-.605469 5.238281-.777344c1.757813-.171875 3.519531-.261719 5.289063-.261719 1.765624 0 3.53125.085938 5.289062.257813 1.757812.175781 3.503906.433594 5.238281.777344s3.445313.773437 5.136719 1.285156c1.691406.515625 3.351562 1.109375 4.984375 1.785156s3.230469 1.429688 4.789063 2.261719c1.558593.832031 3.074218 1.742188 4.542968 2.722656 1.46875.980469 2.886719 2.03125 4.253906 3.152344 1.367188 1.121094 2.675782 2.308594 3.921876 3.554688 1.25 1.25 2.4375 2.558593 3.558593 3.925781 1.121094 1.363281 2.171875 2.78125 3.152344 4.25.984375 1.472656 1.890625 2.984375 2.726563 4.542969.832031 1.558593 1.589843 3.15625 2.265624 4.789062.675782 1.632812 1.273438 3.292969 1.785157 4.984375s.941406 3.402344 1.285156 5.136719c.347656 1.734375.605469 3.480468.78125 5.238281.171875 1.757813.257813 3.519531.257813 5.289063 0 1.765624-.085938 3.53125-.257813 5.289062s-.429687 3.503906-.773437 5.238281-.773438 3.445313-1.285157 5.136719c-.515625 1.691406-1.109375 3.351562-1.785156 4.984375s-1.429687 3.230469-2.265625 4.789063c-.832031 1.558593-1.738281 3.074218-2.71875 4.542968-.984375 1.46875-2.035156 2.886719-3.15625 4.253906-1.121094 1.367188-2.304688 2.675782-3.554688 3.925782s-2.558593 2.433594-3.921874 3.554687c-1.367188 1.121094-2.785157 2.171875-4.253907 3.15625-1.46875.980469-2.980469 1.890625-4.542969 2.722657-1.558593.832031-3.152343 1.589843-4.785156 2.265624-1.632812.675782-3.292968 1.269532-4.984375 1.785157-1.691406.511719-3.40625.941406-5.136719 1.285156-1.734374.347656-3.480468.605469-5.238281.78125-1.761719.171875-3.523437.257813-5.289062.257813m46.492187 340.398437h-93.082031v-299.464844h93.082031zm394.960938-534.671875h-534.769532c-1.5-.015625-2.996093.039062-4.488281.171875-1.492187.128906-2.976562.332031-4.453125.605469-1.472656.277344-2.925781.625-4.367187 1.042968-1.4375.417969-2.855469.90625-4.246094 1.464844s-2.75 1.183594-4.082031 1.875c-1.328125.691406-2.621094 1.445313-3.878906 2.261719-1.257813.820313-2.46875 1.695313-3.640626 2.632813-1.167968.9375-2.289062 1.929687-3.363281 2.980468-1.070312 1.046875-2.089843 2.144532-3.054687 3.289063-.964844 1.148437-1.871094 2.339843-2.71875 3.578125-.847656 1.234375-1.632813 2.511718-2.351563 3.824218-.722656 1.3125-1.378906 2.660157-1.96875 4.035157-.589843 1.378906-1.113281 2.78125-1.566406 4.210937-.453125 1.429688-.832031 2.878906-1.144531 4.34375-.308594 1.46875-.546875 2.945313-.710938 4.433594-.164062 1.492188-.257812 2.984375-.273437 4.484375v536.988281c.015625 1.5.105469 2.996094.273437 4.484375.164063 1.492188.398438 2.96875.710938 4.4375.308594 1.46875.6875 2.917969 1.140625 4.347657.453125 1.429687.972656 2.832031 1.5625 4.210937.589843 1.378906 1.246093 2.726563 1.96875 4.042969.722656 1.3125 1.507812 2.589844 2.355469 3.828125.847656 1.234375 1.753906 2.429687 2.714843 3.578125.964844 1.148437 1.984375 2.246094 3.054688 3.292968 1.074219 1.050782 2.195312 2.042969 3.363281 2.980469 1.171875.941407 2.382812 1.820313 3.640625 2.636719 1.253906.820312 2.546875 1.578125 3.878906 2.269531 1.332031.691407 2.691407 1.316407 4.082031 1.875 1.394532.558594 2.808594 1.050781 4.25 1.46875 1.4375.421875 2.894532.769531 4.371094 1.042969 1.472656.277344 2.957032.484375 4.449219.613281 1.496094.132813 2.992187.1875 4.492187.171875h534.769532c1.5.019532 3-.035156 4.5-.164062 1.496094-.128906 2.980468-.328125 4.460937-.601563 1.476563-.277343 2.9375-.621093 4.378907-1.039062 1.445312-.417969 2.863281-.90625 4.257812-1.464844 1.398438-.554687 2.761719-1.179687 4.097656-1.871094 1.335938-.691406 2.632813-1.445312 3.890625-2.265625 1.261719-.816406 2.476563-1.695312 3.652344-2.632812s2.300781-1.933594 3.375-2.980469c1.078125-1.050781 2.101563-2.148437 3.070313-3.296875s1.878906-2.34375 2.730468-3.582031c.847656-1.238281 1.636719-2.511719 2.363282-3.828125.726562-1.316406 1.386718-2.664063 1.980468-4.046875.59375-1.378907 1.121094-2.785157 1.574219-4.21875.457031-1.429688.839844-2.882813 1.15625-4.351563.3125-1.46875.550781-2.949218.722656-4.445312.167969-1.492188.261719-2.988282.28125-4.492188v-537.027344c-.019531-1.5-.117187-3-.285156-4.492187s-.410156-2.972656-.722656-4.441406c-.316407-1.46875-.699219-2.917969-1.15625-4.347657-.457031-1.433593-.980469-2.839843-1.574219-4.21875-.59375-1.378906-1.253906-2.726562-1.980469-4.039062-.726562-1.316406-1.515625-2.589844-2.367187-3.828125-.851563-1.238281-1.761719-2.429687-2.730469-3.578125s-1.992187-2.246094-3.070313-3.292969c-1.074218-1.046875-2.199218-2.039062-3.375-2.976562-1.171874-.9375-2.390624-1.8125-3.652343-2.632813-1.257813-.816406-2.554688-1.570312-3.890625-2.257812-1.332032-.691406-2.699219-1.316406-4.09375-1.871094-1.394532-.554688-2.8125-1.042969-4.257813-1.460938-1.441406-.414062-2.902343-.761718-4.378906-1.035156-1.476563-.269531-2.964844-.472656-4.460937-.597656-1.496094-.128906-2.996094-.183594-4.496094-.164062" fill="#e99dff"/></g></svg>