<svg xmlns="http://www.w3.org/2000/svg" xmlns:xlink="http://www.w3.org/1999/xlink" width="1000" zoomAndPan="magnify" viewBox="0 0 750 749.999995" height="1000" preserveAspectRatio="xMidYMid meet" version="1.0"><defs><clipPath id="491e6e5f3a"><path d="M 3.425781 37.5 L 746.5625 37.5 L 746.5625 706.585938 L 3.425781 706.585938 Z M 3.425781 37.5 " clip-rule="nonzero"/></clipPath></defs><path fill="#e99dff" d="M 423.894531 272.132812 C 415.261719 265.757812 403.050781 262.957031 390.546875 260.457031 C 391.148438 234.402344 394 208.996094 392.214844 183.746094 C 387.433594 177.058594 369.554688 177.65625 360.527344 180.410156 C 350.363281 199.621094 362.511719 231.925781 358.859375 260.457031 C 346.355469 262.957031 334.144531 265.757812 325.507812 272.132812 C 305.117188 257.023438 289.367188 232.019531 272.148438 207.089844 C 255.195312 182.570312 230.847656 161.933594 225.453125 135.382812 C 217.5625 96.519531 238.304688 60.863281 280.480469 65.34375 C 305.058594 67.957031 321.40625 84.65625 352.191406 87.023438 C 368.121094 88.25 381.300781 88.042969 395.546875 87.023438 C 432.382812 84.378906 472.679688 48.375 507.277344 73.683594 C 530.484375 90.65625 527.179688 138.035156 512.273438 162.0625 C 501.429688 179.570312 482.929688 198.191406 468.917969 218.765625 C 454.089844 240.554688 439.679688 262.1875 423.894531 272.132812 " fill-opacity="1" fill-rule="evenodd"/><path fill="#e99dff" d="M 295.5 290.46875 C 286.921875 300.253906 279.679688 311.34375 273.816406 323.820312 C 262.574219 320.625 248.984375 317.359375 233.789062 312.144531 C 219.082031 307.109375 191.433594 287.527344 187.101562 308.820312 C 181.488281 336.335938 246.453125 337.894531 267.140625 350.496094 C 266.632812 363.246094 267.398438 374.699219 268.820312 385.527344 C 244.707031 387.691406 216.011719 393.085938 187.101562 397.191406 C 159.558594 401.105469 132.820312 409.722656 110.382812 412.199219 C 64.722656 417.261719 25.199219 386.929688 30.347656 337.167969 C 34.808594 293.894531 81.640625 291.207031 105.386719 262.121094 C 128.683594 233.59375 110.886719 124.375 178.765625 145.390625 C 187.835938 148.195312 201.378906 160.941406 208.777344 168.738281 C 239.871094 201.503906 267.90625 258.28125 295.5 290.46875 " fill-opacity="1" fill-rule="evenodd"/><path fill="#e99dff" d="M 480.597656 385.527344 C 482.640625 375.34375 482.398438 362.867188 482.261719 350.496094 C 504.199219 339.804688 589.078125 329.160156 553.957031 298.8125 C 526.261719 305.574219 504.121094 317.894531 475.59375 323.820312 C 469.738281 311.882812 463.890625 299.953125 453.921875 292.140625 C 468.285156 266.34375 488.046875 243.121094 508.941406 213.765625 C 525.847656 190.019531 544.800781 153.046875 572.316406 145.394531 C 638.632812 126.933594 618.542969 227.699219 644.023438 260.460938 C 664.957031 287.382812 713.511719 295.449219 719.050781 333.832031 C 726.105469 382.640625 688.386719 416.515625 640.679688 412.199219 C 617.109375 410.082031 589.808594 401.097656 562.308594 397.191406 C 534.339844 393.234375 508.007812 388.207031 480.597656 385.527344 " fill-opacity="1" fill-rule="evenodd"/><path fill="#cfc432" d="M 358.859375 297.144531 C 393.011719 290.699219 426.039062 305.347656 438.90625 327.15625 C 457.722656 359.082031 442.808594 409.34375 410.554688 420.535156 C 373.804688 433.296875 322.183594 420.652344 308.851562 395.523438 C 293.777344 367.175781 305.371094 333.230469 315.5 320.492188 C 324.324219 309.386719 337.859375 301.109375 358.859375 297.144531 " fill-opacity="1" fill-rule="evenodd"/><path fill="#e99dff" d="M 293.824219 433.882812 C 292.550781 453.257812 232.425781 483.953125 238.789062 510.59375 C 246.261719 541.886719 277.078125 495.042969 285.488281 485.578125 C 298.433594 471.015625 307.0625 461.265625 317.167969 448.894531 C 328.582031 454.160156 342.238281 457.167969 357.191406 458.898438 C 356.621094 505.425781 363.039062 555.605469 360.527344 597.308594 C 356.464844 664.804688 267.558594 712.496094 232.121094 650.667969 C 217.722656 625.550781 221.453125 596.671875 195.433594 582.296875 C 163.574219 564.691406 116.152344 574.363281 92.050781 547.28125 C 81.082031 534.953125 74.761719 510.832031 75.375 498.925781 C 76.324219 480.390625 95.8125 450.882812 113.730469 440.550781 C 145.664062 422.140625 229.375 417.902344 268.820312 412.199219 C 280.671875 410.496094 288.730469 425.207031 293.824219 433.882812 " fill-opacity="1" fill-rule="evenodd"/><path fill="#e99dff" d="M 473.929688 410.542969 C 528.945312 424.277344 618.976562 418.707031 652.347656 457.230469 C 670.347656 477.992188 685.660156 512.429688 659.023438 545.617188 C 637.753906 572.121094 584.199219 567.339844 555.636719 582.296875 C 514.804688 603.679688 530.089844 681.800781 465.570312 680.683594 C 429.945312 680.078125 392.039062 638.289062 388.886719 598.976562 C 385.691406 559.273438 393.15625 511.003906 392.214844 458.898438 C 406.980469 457 421.074219 454.398438 432.230469 448.890625 C 441.023438 456.507812 450.101562 472.070312 463.921875 487.246094 C 476.3125 500.851562 494.386719 532.570312 510.613281 513.929688 C 505.277344 474.234375 470.488281 463.992188 455.585938 433.878906 C 460.675781 425.078125 466.964844 417.472656 473.929688 410.542969 " fill-opacity="1" fill-rule="evenodd"/><g clip-path="url(#491e6e5f3a)"><path fill="#1f2723" d="M 455.585938 433.882812 C 470.488281 463.992188 505.277344 474.234375 510.609375 513.929688 C 494.390625 532.570312 476.3125 500.851562 463.921875 487.246094 C 450.097656 472.074219 441.019531 456.507812 432.230469 448.890625 C 421.074219 454.398438 406.980469 457 392.214844 458.898438 C 393.15625 511.003906 385.691406 559.273438 388.886719 598.976562 C 392.039062 638.289062 429.945312 680.078125 465.574219 680.683594 C 530.089844 681.800781 514.804688 603.679688 555.636719 582.296875 C 584.203125 567.339844 637.75 572.121094 659.023438 545.621094 C 685.65625 512.429688 670.34375 477.992188 652.347656 457.230469 C 618.976562 418.707031 528.945312 424.277344 473.929688 410.542969 C 466.960938 417.472656 460.671875 425.078125 455.585938 433.882812 Z M 268.820312 412.199219 C 229.375 417.902344 145.664062 422.140625 113.730469 440.550781 C 95.8125 450.882812 76.324219 480.390625 75.375 498.925781 C 74.761719 510.832031 81.082031 534.953125 92.050781 547.28125 C 116.152344 574.363281 163.574219 564.691406 195.433594 582.296875 C 221.453125 596.671875 217.722656 625.550781 232.121094 650.667969 C 267.558594 712.496094 356.464844 664.804688 360.527344 597.308594 C 363.039062 555.605469 356.621094 505.425781 357.191406 458.898438 C 342.238281 457.167969 328.582031 454.160156 317.167969 448.890625 C 307.0625 461.265625 298.433594 471.015625 285.488281 485.578125 C 277.078125 495.042969 246.261719 541.886719 238.789062 510.59375 C 232.425781 483.953125 292.550781 453.257812 293.824219 433.882812 C 288.730469 425.207031 280.671875 410.496094 268.820312 412.199219 Z M 315.5 320.492188 C 305.371094 333.234375 293.777344 367.175781 308.851562 395.523438 C 322.183594 420.652344 373.804688 433.300781 410.554688 420.535156 C 442.808594 409.34375 457.722656 359.082031 438.90625 327.160156 C 426.039062 305.347656 393.011719 290.703125 358.859375 297.144531 C 337.859375 301.105469 324.324219 309.386719 315.5 320.492188 Z M 562.308594 397.191406 C 589.808594 401.097656 617.109375 410.078125 640.679688 412.199219 C 688.390625 416.515625 726.105469 382.640625 719.050781 333.832031 C 713.511719 295.445312 664.953125 287.382812 644.023438 260.457031 C 618.546875 227.695312 638.632812 126.933594 572.316406 145.390625 C 544.800781 153.046875 525.847656 190.015625 508.945312 213.761719 C 488.042969 243.117188 468.285156 266.339844 453.917969 292.136719 C 463.894531 299.953125 469.738281 311.882812 475.59375 323.820312 C 504.121094 317.894531 526.265625 305.574219 553.957031 298.8125 C 589.082031 329.15625 504.199219 339.804688 482.261719 350.496094 C 482.398438 362.867188 482.640625 375.339844 480.59375 385.527344 C 508.007812 388.207031 534.34375 393.234375 562.308594 397.191406 Z M 208.777344 168.738281 C 201.378906 160.941406 187.835938 148.195312 178.765625 145.390625 C 110.886719 124.375 128.683594 233.59375 105.386719 262.125 C 81.640625 291.203125 34.808594 293.894531 30.347656 337.167969 C 25.199219 386.933594 64.722656 417.261719 110.386719 412.199219 C 132.820312 409.722656 159.558594 401.105469 187.101562 397.191406 C 216.011719 393.085938 244.707031 387.691406 268.820312 385.527344 C 267.398438 374.699219 266.632812 363.246094 267.140625 350.496094 C 246.453125 337.890625 181.488281 336.335938 187.101562 308.820312 C 191.433594 287.527344 219.082031 307.113281 233.789062 312.144531 C 248.984375 317.359375 262.574219 320.625 273.816406 323.820312 C 279.675781 311.34375 286.921875 300.25 295.5 290.472656 C 267.90625 258.28125 239.871094 201.507812 208.777344 168.738281 Z M 468.917969 218.769531 C 482.929688 198.191406 501.425781 179.566406 512.277344 162.0625 C 527.179688 138.035156 530.484375 90.65625 507.273438 73.679688 C 472.675781 48.378906 432.382812 84.382812 395.546875 87.027344 C 381.300781 88.042969 368.121094 88.253906 352.191406 87.027344 C 321.40625 84.65625 305.058594 67.960938 280.480469 65.347656 C 238.304688 60.859375 217.5625 96.523438 225.453125 135.386719 C 230.847656 161.933594 255.195312 182.574219 272.148438 207.09375 C 289.367188 232.023438 305.117188 257.019531 325.503906 272.132812 C 334.144531 265.757812 346.355469 262.957031 358.859375 260.457031 C 362.511719 231.925781 350.363281 199.621094 360.527344 180.410156 C 369.554688 177.65625 387.433594 177.0625 392.214844 183.75 C 393.996094 208.996094 391.148438 234.402344 390.546875 260.457031 C 403.050781 262.957031 415.261719 265.757812 423.894531 272.132812 C 439.675781 262.1875 454.089844 240.554688 468.917969 218.769531 Z M 550.617188 123.707031 C 577.734375 111.167969 619.4375 120.125 635.671875 142.054688 C 656.195312 169.765625 645.027344 205.125 660.695312 237.109375 C 668.933594 253.921875 687.679688 257.089844 704.050781 268.796875 C 720.003906 280.199219 742.375 304.035156 745.738281 332.164062 C 752.300781 387.054688 718.929688 423.894531 675.707031 435.546875 C 707.242188 469.109375 705.921875 535.707031 675.707031 567.292969 C 663.554688 579.980469 644.429688 587.253906 627.335938 592.300781 C 609.199219 597.671875 584.855469 596.910156 568.96875 605.640625 C 551.089844 615.484375 553.144531 640.058594 542.289062 660.671875 C 526.335938 690.988281 487.09375 717.085938 440.578125 702.359375 C 411.707031 693.238281 390.902344 668.925781 375.539062 642.332031 C 355.960938 687.621094 282.65625 731.9375 230.453125 689.027344 C 204.71875 667.867188 203.371094 630.222656 182.097656 605.640625 C 143.050781 594.746094 99.472656 594.164062 73.714844 567.292969 C 43.375 535.675781 41.617188 471.300781 73.714844 437.222656 C 29.03125 419.875 0.492188 389.457031 3.664062 337.167969 C 5.273438 310.726562 22.496094 287.367188 37.011719 275.464844 C 52.859375 262.472656 79.410156 256.363281 88.714844 238.777344 C 97.652344 221.871094 93.925781 201.3125 97.050781 183.75 C 104.703125 140.792969 145.410156 99.628906 198.765625 125.382812 C 196.675781 74.234375 225.636719 29.632812 287.15625 38.671875 C 310.332031 42.074219 328.503906 58.929688 353.859375 60.34375 C 368.300781 61.152344 379.859375 60.925781 393.878906 60.34375 C 420 59.265625 443.410156 41.304688 463.921875 38.671875 C 524.191406 30.902344 553.484375 75.792969 550.617188 123.707031 " fill-opacity="1" fill-rule="evenodd"/></g></svg>