<svg xmlns="http://www.w3.org/2000/svg" xmlns:xlink="http://www.w3.org/1999/xlink" width="1000" zoomAndPan="magnify" viewBox="0 0 750 749.999995" height="1000" preserveAspectRatio="xMidYMid meet" version="1.0"><defs><clipPath id="21b9a3cb5b"><path d="M 63.648438 279.214844 L 222.414062 279.214844 L 222.414062 449.660156 L 63.648438 449.660156 Z M 63.648438 279.214844 " clip-rule="nonzero"/></clipPath><clipPath id="8082658dd5"><path d="M 263.210938 333.0625 L 521.878906 333.0625 L 521.878906 609.730469 L 263.210938 609.730469 Z M 263.210938 333.0625 " clip-rule="nonzero"/></clipPath></defs><path fill="#e99dff" d="M 622.820312 238.605469 C 622.652344 242.515625 604.5 254.285156 603.632812 257.796875 C 602.621094 247.210938 586.671875 244.980469 587.003906 237.332031 C 587.164062 233.683594 605.257812 221.210938 606.1875 218.148438 C 607.304688 228.640625 623.144531 231.046875 622.820312 238.605469 Z M 528.164062 225.816406 C 523.972656 233.816406 524.304688 247.835938 530.726562 252.679688 C 540.003906 259.675781 554.460938 253.152344 563.980469 256.523438 C 573.210938 259.785156 586.582031 274.035156 589.566406 283.378906 C 595.691406 302.628906 586.355469 332.207031 615.140625 317.914062 C 615.347656 275.050781 634.050781 250.695312 679.097656 252.679688 C 684.382812 246.441406 686.335938 229.855469 680.375 223.261719 C 650.378906 225.71875 630.671875 217.671875 622.820312 197.683594 C 617.0625 183.046875 623.335938 140.242188 597.234375 154.195312 C 588.816406 158.691406 591.179688 180.566406 587.003906 192.5625 C 579.464844 214.214844 560.765625 227.996094 528.164062 225.816406 " fill-opacity="1" fill-rule="evenodd"/><path fill="#e99dff" d="M 606.1875 218.148438 C 605.257812 221.214844 587.164062 233.6875 587.003906 237.332031 C 586.671875 244.976562 602.621094 247.210938 603.632812 257.796875 C 604.5 254.289062 622.652344 242.515625 622.820312 238.609375 C 623.144531 231.046875 607.304688 228.644531 606.1875 218.148438 " fill-opacity="1" fill-rule="evenodd"/><g clip-path="url(#21b9a3cb5b)"><path fill="#e99dff" d="M 161.078125 366.515625 C 160.910156 370.417969 142.757812 382.191406 141.894531 385.703125 C 140.878906 375.113281 124.933594 372.886719 125.265625 365.238281 C 125.421875 361.59375 143.515625 349.121094 144.445312 346.054688 C 145.570312 356.550781 161.402344 358.953125 161.078125 366.515625 Z M 66.429688 353.71875 C 62.226562 361.722656 62.558594 375.742188 68.984375 380.589844 C 78.269531 387.582031 92.730469 381.050781 102.242188 384.425781 C 111.46875 387.6875 124.84375 401.945312 127.824219 411.277344 C 133.957031 430.53125 124.613281 460.105469 153.410156 445.808594 C 153.605469 402.957031 172.3125 378.597656 217.359375 380.589844 C 222.636719 374.355469 224.59375 357.765625 218.632812 351.171875 C 188.632812 353.625 168.933594 345.578125 161.078125 325.59375 C 155.320312 310.945312 161.59375 268.144531 135.496094 282.101562 C 127.082031 286.597656 129.4375 308.472656 125.265625 320.46875 C 117.722656 342.121094 99.023438 355.902344 66.429688 353.71875 " fill-opacity="1" fill-rule="evenodd"/></g><g clip-path="url(#8082658dd5)"><path fill="#e99dff" d="M 439.914062 476.519531 C 415.730469 487.71875 400.453125 507.832031 393.859375 536.628906 C 382.621094 510.785156 369.980469 486.332031 343.988281 475.234375 C 367.691406 462.28125 378.359375 436.277344 393.859375 415.125 C 404.269531 440.527344 420.773438 459.847656 439.914062 476.519531 Z M 382.351562 337.097656 C 374.949219 354.183594 377.667969 369.230469 374.679688 384.425781 C 368.980469 413.371094 345.183594 446.210938 326.074219 456.050781 C 311.984375 463.308594 265.085938 459.023438 263.402344 475.234375 C 261.992188 488.847656 276.226562 490.554688 292.820312 491.867188 C 318.019531 493.859375 347.058594 503.292969 358.0625 522.554688 C 367.867188 539.773438 371.804688 560.0625 374.679688 582.679688 C 375.324219 587.730469 375.171875 600.039062 378.515625 604.425781 C 383.625 611.09375 398.632812 611.039062 404.09375 606.984375 C 414.316406 599.398438 411.410156 569.546875 413.050781 562.21875 C 422.738281 519.011719 442.625 495.691406 491.074219 491.867188 C 509.839844 490.382812 522.257812 489.554688 521.769531 476.519531 C 521.078125 457.902344 494.074219 465.554688 478.285156 462.449219 C 446.953125 456.273438 419.3125 418.398438 411.773438 390.816406 C 409.484375 382.464844 409.898438 366.535156 409.21875 361.398438 C 407.113281 345.628906 401.402344 324.441406 382.351562 337.097656 " fill-opacity="1" fill-rule="evenodd"/></g><path fill="#e99dff" d="M 144.445312 346.054688 C 143.511719 349.121094 125.417969 361.59375 125.265625 365.238281 C 124.933594 372.886719 140.878906 375.113281 141.894531 385.703125 C 142.757812 382.191406 160.914062 370.417969 161.078125 366.515625 C 161.402344 358.953125 145.566406 356.550781 144.445312 346.054688 " fill-opacity="1" fill-rule="evenodd"/><path fill="#e99dff" d="M 393.863281 415.125 C 378.363281 436.277344 367.691406 462.28125 343.988281 475.238281 C 369.980469 486.332031 382.625 510.785156 393.863281 536.628906 C 400.453125 507.832031 415.730469 487.71875 439.914062 476.523438 C 420.773438 459.847656 404.273438 440.527344 393.863281 415.125 " fill-opacity="1" fill-rule="evenodd"/></svg>