<svg xmlns="http://www.w3.org/2000/svg" xmlns:xlink="http://www.w3.org/1999/xlink" width="1000" zoomAndPan="magnify" viewBox="0 0 750 749.999995" height="1000" preserveAspectRatio="xMidYMid meet" version="1.0"><defs><clipPath id="173ac7accb"><path d="M 527.574219 300.339844 L 686.339844 300.339844 L 686.339844 470.78125 L 527.574219 470.78125 Z M 527.574219 300.339844 " clip-rule="nonzero"/></clipPath><clipPath id="e40141ad19"><path d="M 228.109375 140.265625 L 486.777344 140.265625 L 486.777344 416.9375 L 228.109375 416.9375 Z M 228.109375 140.265625 " clip-rule="nonzero"/></clipPath></defs><path fill="#e99dff" d="M 127.167969 511.390625 C 127.335938 507.484375 145.488281 495.710938 146.355469 492.203125 C 147.367188 502.789062 163.316406 505.019531 162.984375 512.667969 C 162.824219 516.316406 144.734375 528.785156 143.800781 531.851562 C 142.683594 521.359375 126.84375 518.953125 127.167969 511.390625 Z M 221.824219 524.179688 C 226.015625 516.183594 225.6875 502.164062 219.261719 497.320312 C 209.988281 490.324219 195.527344 496.847656 186.007812 493.476562 C 176.777344 490.210938 163.40625 475.964844 160.421875 466.621094 C 154.296875 447.371094 163.632812 417.792969 134.847656 432.085938 C 134.640625 474.949219 115.9375 499.304688 70.890625 497.320312 C 65.605469 503.558594 63.652344 520.144531 69.613281 526.738281 C 99.613281 524.277344 119.316406 532.328125 127.167969 552.316406 C 132.925781 566.953125 126.652344 609.757812 152.753906 595.804688 C 161.171875 591.308594 158.808594 569.433594 162.984375 557.433594 C 170.523438 535.785156 189.222656 522.003906 221.824219 524.179688 " fill-opacity="1" fill-rule="evenodd"/><path fill="#e99dff" d="M 143.800781 531.851562 C 144.734375 528.785156 162.824219 516.3125 162.984375 512.667969 C 163.316406 505.019531 147.367188 502.789062 146.355469 492.203125 C 145.488281 495.710938 127.335938 507.484375 127.167969 511.390625 C 126.84375 518.953125 142.683594 521.355469 143.800781 531.851562 " fill-opacity="1" fill-rule="evenodd"/><g clip-path="url(#173ac7accb)"><path fill="#e99dff" d="M 588.910156 383.484375 C 589.078125 379.582031 607.230469 367.808594 608.097656 364.296875 C 609.109375 374.886719 625.054688 377.113281 624.722656 384.761719 C 624.566406 388.40625 606.472656 400.878906 605.542969 403.945312 C 604.417969 393.449219 588.585938 391.046875 588.910156 383.484375 Z M 683.558594 396.28125 C 687.761719 388.277344 687.429688 374.257812 681.003906 369.410156 C 671.71875 362.417969 657.257812 368.949219 647.746094 365.574219 C 638.519531 362.3125 625.148438 348.054688 622.167969 338.722656 C 616.03125 319.46875 625.375 289.894531 596.578125 304.191406 C 596.382812 347.042969 577.675781 371.402344 532.628906 369.410156 C 527.351562 375.644531 525.394531 392.234375 531.355469 398.828125 C 561.355469 396.375 581.054688 404.417969 588.910156 424.40625 C 594.667969 439.050781 588.394531 481.855469 614.492188 467.898438 C 622.90625 463.398438 620.550781 441.527344 624.722656 429.53125 C 632.265625 407.878906 650.96875 394.097656 683.558594 396.28125 " fill-opacity="1" fill-rule="evenodd"/></g><g clip-path="url(#e40141ad19)"><path fill="#e99dff" d="M 310.074219 273.476562 C 334.257812 262.28125 349.535156 242.167969 356.128906 213.371094 C 367.367188 239.214844 380.007812 263.667969 406 274.761719 C 382.296875 287.71875 371.628906 313.722656 356.128906 334.875 C 345.71875 309.472656 329.214844 290.152344 310.074219 273.476562 Z M 367.636719 412.902344 C 375.039062 395.8125 372.320312 380.769531 375.308594 365.574219 C 381.007812 336.628906 404.808594 303.785156 423.914062 293.949219 C 438.003906 286.6875 484.902344 290.976562 486.585938 274.761719 C 487.996094 261.152344 473.761719 259.445312 457.167969 258.132812 C 431.96875 256.140625 402.933594 246.707031 391.929688 227.445312 C 382.121094 210.226562 378.183594 189.933594 375.308594 167.320312 C 374.664062 162.265625 374.816406 149.960938 371.472656 145.574219 C 366.363281 138.902344 351.355469 138.957031 345.894531 143.015625 C 335.671875 150.601562 338.578125 180.449219 336.9375 187.78125 C 327.25 230.988281 307.363281 254.304688 258.914062 258.132812 C 240.148438 259.613281 227.730469 260.441406 228.222656 273.476562 C 228.910156 292.097656 255.914062 284.445312 271.703125 287.550781 C 303.035156 293.726562 330.675781 331.601562 338.214844 359.183594 C 340.507812 367.535156 340.089844 383.464844 340.769531 388.601562 C 342.878906 404.367188 348.585938 425.558594 367.636719 412.902344 " fill-opacity="1" fill-rule="evenodd"/></g><path fill="#e99dff" d="M 605.542969 403.945312 C 606.476562 400.878906 624.570312 388.40625 624.722656 384.761719 C 625.054688 377.113281 609.109375 374.886719 608.09375 364.296875 C 607.230469 367.808594 589.074219 379.582031 588.910156 383.484375 C 588.585938 391.046875 604.421875 393.449219 605.542969 403.945312 " fill-opacity="1" fill-rule="evenodd"/><path fill="#e99dff" d="M 356.128906 334.875 C 371.625 313.722656 382.296875 287.71875 406 274.761719 C 380.007812 263.667969 367.363281 239.214844 356.128906 213.371094 C 349.539062 242.167969 334.257812 262.28125 310.074219 273.476562 C 329.214844 290.152344 345.714844 309.472656 356.128906 334.875 " fill-opacity="1" fill-rule="evenodd"/></svg>