<?xml version="1.0" encoding="UTF-8" standalone="no"?>
<svg
   height="383.89096"
   preserveAspectRatio="xMidYMid"
   viewBox="0 0 750 287.91822"
   width="1000"
   zoomAndPan="magnify"
   version="1.1"
   id="svg17"
   sodipodi:docname="yourstruly.svg"
   xmlns:inkscape="http://www.inkscape.org/namespaces/inkscape"
   xmlns:sodipodi="http://sodipodi.sourceforge.net/DTD/sodipodi-0.dtd"
   xmlns="http://www.w3.org/2000/svg"
   xmlns:svg="http://www.w3.org/2000/svg">
  <defs
     id="defs17" />
  <sodipodi:namedview
     id="namedview17"
     pagecolor="#505050"
     bordercolor="#eeeeee"
     borderopacity="1"
     inkscape:showpageshadow="0"
     inkscape:pageopacity="0"
     inkscape:pagecheckerboard="0"
     inkscape:deskcolor="#d1d1d1">
    <sodipodi:guide
       position="0,986.59863"
       orientation="0,1000"
       id="guide17"
       inkscape:locked="false" />
    <sodipodi:guide
       position="750,986.59863"
       orientation="1000,0"
       id="guide18"
       inkscape:locked="false" />
    <sodipodi:guide
       position="750,236.59863"
       orientation="0,-1000"
       id="guide19"
       inkscape:locked="false" />
    <sodipodi:guide
       position="0,236.59863"
       orientation="-1000,0"
       id="guide20"
       inkscape:locked="false" />
  </sodipodi:namedview>
  <path
     d="m 159.63539,238.81734 c -5.27343,0 -10.02343,-0.51172 -14.25,-1.53125 -4.21875,-1.00781 -7.87109,-2.52343 -10.95312,-4.54687 -3.08594,-2.03125 -5.48047,-4.58594 -7.1875,-7.67188 -1.69922,-3.08203 -2.75,-6.65625 -3.15625,-10.71875 l 17.28125,-5.71875 c 0.25,3.49219 1.20312,6.3711 2.85937,8.64063 1.66407,2.27344 3.9375,3.96094 6.8125,5.0625 2.88282,1.09375 6.07032,1.64062 9.5625,1.64062 3.33204,0 6.13282,-0.42578 8.40625,-1.28125 2.26954,-0.85156 3.99219,-1.92578 5.17188,-3.21875 1.17578,-1.30078 1.76562,-2.72265 1.76562,-4.26562 0,-1.78906 -0.77343,-3.26953 -2.3125,-4.4375 -1.54296,-1.17578 -3.65234,-2.19141 -6.32812,-3.04688 -2.67969,-0.85156 -5.76172,-1.6875 -9.25,-2.5 -4.0625,-0.96875 -8,-2.03906 -11.8125,-3.21875 -3.8125,-1.17578 -7.30469,-2.65625 -10.46875,-4.4375 -3.16797,-1.78906 -5.66406,-4.125 -7.48438,-7 -1.82421,-2.88281 -2.73437,-6.51953 -2.73437,-10.90625 0,-4.94531 1.25391,-9.24218 3.76562,-12.89062 2.51954,-3.65625 6.21094,-6.51563 11.07813,-8.57813 4.86328,-2.07031 10.82812,-3.10937 17.89062,-3.10937 6.97657,0 12.94141,1.01562 17.89063,3.04687 4.95703,2.02344 8.77344,4.88282 11.45312,8.57813 2.67579,3.6875 4.09375,7.92969 4.25,12.71875 l -17.53125,4.85937 c 0,-2.35156 -0.38671,-4.42187 -1.15625,-6.20312 -0.77343,-1.78906 -1.82812,-3.26953 -3.17187,-4.4375 -1.33594,-1.17578 -3.01563,-2.06641 -5.04688,-2.67188 -2.02343,-0.61328 -4.29296,-0.92187 -6.8125,-0.92187 -3.08593,0 -5.66406,0.34375 -7.73437,1.03125 -2.0625,0.6875 -3.64063,1.62109 -4.73438,2.79687 -1.09375,1.17969 -1.64062,2.53907 -1.64062,4.07813 0,1.94922 0.82812,3.55469 2.48437,4.8125 1.66407,1.26172 3.91407,2.32031 6.75,3.17187 2.84375,0.84375 6.00782,1.67188 9.5,2.48438 3.48829,0.73047 7.07813,1.64062 10.76563,2.73437 3.69531,1.09375 7.17187,2.5586 10.42187,4.39063 3.25,1.82422 5.84375,4.23437 7.78125,7.23437 1.94532,3 2.92188,6.8125 2.92188,11.4375 0,5.03125 -1.32031,9.39844 -3.95313,13.09375 -2.63671,3.6875 -6.57421,6.52735 -11.8125,8.51563 -5.23046,1.98828 -11.65625,2.98437 -19.28125,2.98437 z m 0,0"
     fill="#e99dff"
     id="path1" />
  <path
     d="m 228.76753,237.11422 v -24.95313 l -29.70313,-55.375 h 23.60938 l 15.70312,37.84375 h 0.60938 l 15.70312,-37.84375 h 23.375 l -29.57812,55.125 v 25.20313 z m 0,0"
     fill="#e99dff"
     id="path2" />
  <path
     d="m 295.46134,237.11422 v -15.9375 h 23 c 2.51953,0 4.9375,-0.36328 7.25,-1.09375 2.3125,-0.73828 4.33594,-2 6.07812,-3.78125 1.75,-1.78125 3.12891,-4.23438 4.14063,-7.35938 1.01953,-3.125 1.53125,-7.03906 1.53125,-11.75 0,-4.53906 -0.49219,-8.375 -1.46875,-11.5 -0.96875,-3.125 -2.35156,-5.66015 -4.14063,-7.60937 -1.78125,-1.94531 -4.01171,-3.32813 -6.6875,-4.14063 -2.67968,-0.8125 -5.71875,-1.21875 -9.125,-1.21875 h -20.57812 v -15.9375 h 19.84375 c 9.89453,0 17.98828,1.58594 24.28125,4.75 6.28906,3.15625 10.91406,7.67969 13.875,13.5625 2.95703,5.88672 4.4375,12.92969 4.4375,21.125 0,6.32422 -0.77344,11.79688 -2.3125,16.42188 -1.54297,4.625 -3.58984,8.5 -6.14063,11.625 -2.55468,3.125 -5.51562,5.64062 -8.89062,7.54687 -3.36719,1.90625 -6.89844,3.26563 -10.59375,4.07813 -3.6875,0.8125 -7.32031,1.21875 -10.89063,1.21875 z m -9.125,0 v -80.32813 h 19.59375 v 80.32813 z m 0,0"
     fill="#e99dff"
     id="path3" />
  <path
     d="m 370.92661,237.11422 v -80.32813 h 25.5625 l 33.95312,53.92188 h 1.21875 l -0.96875,-53.92188 h 19.10938 v 80.32813 h -23.25 l -36.26563,-56.84375 h -1.34375 l 1.09375,56.84375 z m 0,0"
     fill="#e99dff"
     id="path4" />
  <path
     d="m 465.74076,237.11422 v -80.32813 h 19.71875 v 80.32813 z m 14.23437,0 v -15.9375 h 48.9375 v 15.9375 z m 0,-33.34375 v -14.25 h 42.84375 v 14.25 z m 0,-31.17188 v -15.8125 h 48.6875 v 15.8125 z m 0,0"
     fill="#e99dff"
     id="path5" />
  <path
     d="m 563.35555,237.11422 v -24.95313 l -29.70313,-55.375 h 23.60938 l 15.70312,37.84375 h 0.60938 l 15.70312,-37.84375 h 23.375 l -29.57812,55.125 v 25.20313 z m 0,0"
     fill="#e99dff"
     id="path6" />
  <g
     fill="#1f2723"
     id="g17"
     transform="translate(0,-236.59863)">
    <path
       d="m 53.15625,-55.125 c 0,14.105469 -4.1875,28.621094 -12.5625,43.546875 -7.929688,14.0625 -17.828125,25.640625 -29.703125,34.734375 -11.625,8.875 -25.078125,13.3125 -40.359375,13.3125 -3.5,0 -7.003906,-0.914062 -10.515625,-2.734375 -4.207031,-2.136719 -6.3125,-4.777344 -6.3125,-7.921875 0,-1.730469 1.21875,-2.59375 3.65625,-2.59375 h 0.453125 c 4.3125,3.15625 6.902344,4.957031 7.765625,5.40625 3.25,1.9375 6.195313,2.90625 8.828125,2.90625 14.929688,0 28.378906,-9.777344 40.359375,-29.328125 4.46875,-7.300781 6.703125,-15.039063 6.703125,-23.21875 0,-3.90625 -0.507812,-8.78125 -1.515625,-14.625 -1.167969,-6.800781 -2.539063,-11.316406 -4.109375,-13.546875 -0.05469,-0.05078 -1.625,-1.675781 -4.71875,-4.875 -1.585938,-1.570312 -2.375,-3.726562 -2.375,-6.46875 0,-3.351562 2.207031,-5.03125 6.625,-5.03125 3,0 5.460938,1.699219 7.390625,5.09375 1.019531,1.835938 2.46875,9.199219 4.34375,22.09375 1.726563,11.417969 3.707031,17.585938 5.9375,18.5 3.351563,-0.457031 6.222656,-5.28125 8.609375,-14.46875 1.820312,-7.257812 2.734375,-13.453125 2.734375,-18.578125 0,-0.96875 -0.125,-2.425781 -0.375,-4.375 -0.25,-1.957031 -0.375,-3.421875 -0.375,-4.390625 0,-2.582031 1.316406,-3.875 3.953125,-3.875 3.707031,0 5.5625,3.480469 5.5625,10.4375 z m 0,0"
       transform="translate(64.649778,380.55774)"
       id="path7" />
    <path
       d="m 55.4375,-44.921875 c 0,9.949219 -3.324219,19.695313 -9.96875,29.234375 C 38.15625,-5.226562 29.75,0 20.25,0 14.113281,0 9.421875,-2.128906 6.171875,-6.390625 3.222656,-10.253906 1.75,-15.332031 1.75,-21.625 c 0,-10.457031 3.171875,-20.15625 9.515625,-29.09375 7.007813,-9.894531 15.539063,-14.84375 25.59375,-14.84375 12.382813,0 18.578125,6.882812 18.578125,20.640625 z M 45,-45.078125 c 0,-7.507813 -2.996094,-11.265625 -8.984375,-11.265625 -6.242187,0 -12.027344,4.542969 -17.359375,13.625 -4.773438,8.179688 -7.15625,15.640625 -7.15625,22.390625 0,6.59375 3.273438,9.890625 9.828125,9.890625 6.75,0 12.535156,-4.210938 17.359375,-12.640625 4.207031,-7.351563 6.3125,-14.6875 6.3125,-22 z m 0,0"
       transform="translate(125.49022,380.55774)"
       id="path8" />
    <path
       d="m 63.96875,-58.109375 c 0,3.054687 -1.273438,7.265625 -3.8125,12.640625 -1.980469,4.117188 -3.960938,8.230469 -5.9375,12.34375 -1.117188,2.792969 -2.105469,5.460938 -2.96875,8 -1.429688,4.210938 -2.140625,7.40625 -2.140625,9.59375 0,2.992188 0.6875,4.484375 2.0625,4.484375 1.21875,0 2.90625,-1.050781 5.0625,-3.15625 2.15625,-2.101563 3.789063,-3.15625 4.90625,-3.15625 1.53125,0 2.296875,0.609375 2.296875,1.828125 0,3.042969 -2.589844,6.390625 -7.765625,10.046875 -4.875,3.460937 -8.9375,5.1875 -12.1875,5.1875 -2.742187,0 -4.109375,-1.375 -4.109375,-4.125 0,-2.53125 0.8125,-6.207031 2.4375,-11.03125 1.625,-4.820313 2.4375,-8.503906 2.4375,-11.046875 0,-1.976562 -0.539062,-2.96875 -1.609375,-2.96875 -1.574219,0 -4.339844,2.539062 -8.296875,7.609375 -5.6875,7.3125 -9.648438,12.0625 -11.875,14.25 C 17.289062,-2.535156 12.46875,0 8,0 5.8125,0 4.054688,-1.015625 2.734375,-3.046875 1.617188,-4.773438 1.0625,-6.804688 1.0625,-9.140625 c 0,-5.425781 2.5,-12.835937 7.5,-22.234375 5,-9.394531 7.5,-16.019531 7.5,-19.875 0,-2.382812 -0.9375,-3.578125 -2.8125,-3.578125 -1.574219,0 -3.554688,1.007813 -5.9375,3.015625 -2.386719,2 -3.933594,3 -4.640625,3 -1.179687,0 -1.765625,-0.503906 -1.765625,-1.515625 0,-3.25 2.515625,-6.648437 7.546875,-10.203125 4.769531,-3.351562 8.859375,-5.03125 12.265625,-5.03125 2.070312,0 3.78125,0.789062 5.125,2.359375 1.351562,1.574219 2.03125,3.402344 2.03125,5.484375 0,4.929688 -2.589844,11.921875 -7.765625,20.984375 -5.179687,9.054687 -7.765625,15.945313 -7.765625,20.671875 0,2.886719 0.679688,4.328125 2.046875,4.328125 4.0625,0 10.023437,-5.554687 17.890625,-16.671875 5.582031,-7.8125 10.28125,-15.425781 14.09375,-22.84375 0.914062,-2.03125 2.414062,-5.023438 4.5,-8.984375 2.070312,-3.550781 4.40625,-5.328125 7,-5.328125 1.875,0 3.394531,0.789062 4.5625,2.359375 1.019531,1.46875 1.53125,3.167969 1.53125,5.09375 z m 0,0"
       transform="translate(185.03617,380.55774)"
       id="path9" />
    <path
       d="m 56.8125,-59.78125 c 0,2.492188 -0.585938,4.980469 -1.75,7.46875 -1.429688,3.042969 -3.257812,4.5625 -5.484375,4.5625 -1.167969,0 -2.4375,-1.0625 -3.8125,-3.1875 -1.375,-2.132812 -2.59375,-3.203125 -3.65625,-3.203125 -3.199219,0 -8.324219,5.9375 -15.375,17.8125 -2.542969,4.273437 -4.476563,8.414063 -5.796875,12.421875 L 13.859375,-2.515625 C 13.296875,-0.835938 11.316406,0 7.921875,0 6.398438,0 5.101562,-0.707031 4.03125,-2.125 2.96875,-3.550781 2.4375,-5.050781 2.4375,-6.625 c 0,-1.875 0.863281,-5.175781 2.59375,-9.90625 2.070312,-5.582031 4.148438,-11.140625 6.234375,-16.671875 2.738281,-7.769531 4.109375,-13.273437 4.109375,-16.515625 0,-4.320312 -0.886719,-6.484375 -2.65625,-6.484375 -0.511719,0 -1.210938,0.195313 -2.09375,0.578125 -0.886719,0.375 -1.585938,0.5625 -2.09375,0.5625 -1.21875,0 -1.828125,-0.628906 -1.828125,-1.890625 0,-2.132813 1.269531,-4.140625 3.8125,-6.015625 2.382813,-1.726562 4.664063,-2.59375 6.84375,-2.59375 4.164063,0 6.25,1.855469 6.25,5.5625 0,1.367188 -0.335937,3.34375 -1,5.9375 -0.65625,2.585938 -0.984375,4.5625 -0.984375,5.9375 0,2.492188 0.734375,3.734375 2.203125,3.734375 1.019531,0 2.898437,-1.828125 5.640625,-5.484375 3.65625,-4.875 6.550781,-8.273438 8.6875,-10.203125 4.007812,-3.65625 8.046875,-5.484375 12.109375,-5.484375 4.363281,0 6.546875,1.929688 6.546875,5.78125 z m 0,0"
       transform="translate(254.40493,380.55774)"
       id="path10" />
    <path
       d="m 42.796875,-54.0625 c 0,4.71875 -0.8125,7.078125 -2.4375,7.078125 -0.8125,0 -2.820313,-1.457031 -6.015625,-4.375 -3.199219,-2.914063 -5.992188,-4.375 -8.375,-4.375 -2.542969,0 -4.703125,1.015625 -6.484375,3.046875 -1.773437,2.023438 -2.65625,4.328125 -2.65625,6.921875 0,2.1875 1.90625,5.007813 5.71875,8.453125 7,6.242188 10.578125,9.4375 10.734375,9.59375 3.800781,4.117188 5.703125,8.074219 5.703125,11.875 0,4.730469 -1.902344,8.617188 -5.703125,11.65625 C 29.769531,-1.394531 25.582031,0 20.71875,0 c -4.011719,0 -7.84375,-0.8125 -11.5,-2.4375 -4.574219,-2.082031 -6.859375,-4.875 -6.859375,-8.375 0,-5.382812 0.863281,-8.078125 2.59375,-8.078125 0.050781,0 0.203125,0.02734 0.453125,0.07813 5.632812,5.179688 10.484375,7.765625 14.546875,7.765625 4.769531,0 7.15625,-2.101563 7.15625,-6.3125 0,-1.726563 -1.398437,-3.988281 -4.1875,-6.78125 -4.367187,-4.3125 -7.007813,-7.050781 -7.921875,-8.21875 -2.792969,-3.707031 -4.1875,-7.566406 -4.1875,-11.578125 0,-5.582031 1.546875,-10.457031 4.640625,-14.625 3.40625,-4.664062 7.796875,-7 13.171875,-7 1.988281,0 4.425781,0.585938 7.3125,1.75 3.195312,1.324219 5.203125,2.746094 6.015625,4.265625 0.5625,1.0625 0.84375,2.890625 0.84375,5.484375 z m 0,0"
       transform="translate(312.58027,380.55774)"
       id="path11" />
    <path
       d="m 47.28125,-63.4375 c 0,4.167969 -2.96875,6.25 -8.90625,6.25 -0.90625,0 -2.261719,-0.07031 -4.0625,-0.21875 -1.804688,-0.15625 -3.164062,-0.234375 -4.078125,-0.234375 -2.792969,0 -4.796875,1.167969 -6.015625,3.5 -0.355469,0.710937 -1.070312,3.070313 -2.140625,7.078125 l -7.984375,30.234375 c -0.105469,0.40625 -0.15625,0.867187 -0.15625,1.375 0,2.992187 1.394531,4.484375 4.1875,4.484375 2.4375,0 4.910156,-1.9375 7.421875,-5.8125 2.507813,-3.882812 4.53125,-5.828125 6.0625,-5.828125 2.382813,0 3.578125,1.0625 3.578125,3.1875 0,2.4375 -1.554688,5.917969 -4.65625,10.4375 C 26.425781,-2.992188 20.691406,0 13.328125,0 c -2.6875,0 -5.125,-0.835938 -7.3125,-2.515625 -2.4375,-1.769531 -3.65625,-3.953125 -3.65625,-6.546875 0,-4.46875 3.222656,-17.3125 9.671875,-38.53125 1.269531,-4.164062 1.90625,-6.675781 1.90625,-7.53125 0,-1.175781 -1.09375,-1.835938 -3.28125,-1.984375 1.570312,0.105469 0.07813,0.15625 -4.484375,0.15625 -2.085937,0 -3.125,-0.785156 -3.125,-2.359375 0,-2.894531 1.21875,-4.722656 3.65625,-5.484375 1.21875,-0.40625 3.65625,-0.609375 7.3125,-0.609375 2.738281,0 4.789063,-2.03125 6.15625,-6.09375 1.582031,-4.71875 2.726563,-7.304688 3.4375,-7.765625 1.007813,-0.664063 2.707031,-1 5.09375,-1 2.289063,0 3.4375,0.714844 3.4375,2.140625 0,1.117188 -0.460937,2.6875 -1.375,4.71875 -0.917969,2.03125 -1.375,3.605469 -1.375,4.71875 0,2.492188 1.421875,3.734375 4.265625,3.734375 1.320312,0 3.300781,-0.09766 5.9375,-0.296875 2.644531,-0.207031 4.625,-0.3125 5.9375,-0.3125 1.164062,0 1.75,0.710938 1.75,2.125 z m 0,0"
       transform="translate(400.90928,380.55774)"
       id="path12" />
    <path
       d="m 56.8125,-59.78125 c 0,2.492188 -0.585938,4.980469 -1.75,7.46875 -1.429688,3.042969 -3.257812,4.5625 -5.484375,4.5625 -1.167969,0 -2.4375,-1.0625 -3.8125,-3.1875 -1.375,-2.132812 -2.59375,-3.203125 -3.65625,-3.203125 -3.199219,0 -8.324219,5.9375 -15.375,17.8125 -2.542969,4.273437 -4.476563,8.414063 -5.796875,12.421875 L 13.859375,-2.515625 C 13.296875,-0.835938 11.316406,0 7.921875,0 6.398438,0 5.101562,-0.707031 4.03125,-2.125 2.96875,-3.550781 2.4375,-5.050781 2.4375,-6.625 c 0,-1.875 0.863281,-5.175781 2.59375,-9.90625 2.070312,-5.582031 4.148438,-11.140625 6.234375,-16.671875 2.738281,-7.769531 4.109375,-13.273437 4.109375,-16.515625 0,-4.320312 -0.886719,-6.484375 -2.65625,-6.484375 -0.511719,0 -1.210938,0.195313 -2.09375,0.578125 -0.886719,0.375 -1.585938,0.5625 -2.09375,0.5625 -1.21875,0 -1.828125,-0.628906 -1.828125,-1.890625 0,-2.132813 1.269531,-4.140625 3.8125,-6.015625 2.382813,-1.726562 4.664063,-2.59375 6.84375,-2.59375 4.164063,0 6.25,1.855469 6.25,5.5625 0,1.367188 -0.335937,3.34375 -1,5.9375 -0.65625,2.585938 -0.984375,4.5625 -0.984375,5.9375 0,2.492188 0.734375,3.734375 2.203125,3.734375 1.019531,0 2.898437,-1.828125 5.640625,-5.484375 3.65625,-4.875 6.550781,-8.273438 8.6875,-10.203125 4.007812,-3.65625 8.046875,-5.484375 12.109375,-5.484375 4.363281,0 6.546875,1.929688 6.546875,5.78125 z m 0,0"
       transform="translate(451.5462,380.55774)"
       id="path13" />
    <path
       d="m 63.96875,-58.109375 c 0,3.054687 -1.273438,7.265625 -3.8125,12.640625 -1.980469,4.117188 -3.960938,8.230469 -5.9375,12.34375 -1.117188,2.792969 -2.105469,5.460938 -2.96875,8 -1.429688,4.210938 -2.140625,7.40625 -2.140625,9.59375 0,2.992188 0.6875,4.484375 2.0625,4.484375 1.21875,0 2.90625,-1.050781 5.0625,-3.15625 2.15625,-2.101563 3.789063,-3.15625 4.90625,-3.15625 1.53125,0 2.296875,0.609375 2.296875,1.828125 0,3.042969 -2.589844,6.390625 -7.765625,10.046875 -4.875,3.460937 -8.9375,5.1875 -12.1875,5.1875 -2.742187,0 -4.109375,-1.375 -4.109375,-4.125 0,-2.53125 0.8125,-6.207031 2.4375,-11.03125 1.625,-4.820313 2.4375,-8.503906 2.4375,-11.046875 0,-1.976562 -0.539062,-2.96875 -1.609375,-2.96875 -1.574219,0 -4.339844,2.539062 -8.296875,7.609375 -5.6875,7.3125 -9.648438,12.0625 -11.875,14.25 C 17.289062,-2.535156 12.46875,0 8,0 5.8125,0 4.054688,-1.015625 2.734375,-3.046875 1.617188,-4.773438 1.0625,-6.804688 1.0625,-9.140625 c 0,-5.425781 2.5,-12.835937 7.5,-22.234375 5,-9.394531 7.5,-16.019531 7.5,-19.875 0,-2.382812 -0.9375,-3.578125 -2.8125,-3.578125 -1.574219,0 -3.554688,1.007813 -5.9375,3.015625 -2.386719,2 -3.933594,3 -4.640625,3 -1.179687,0 -1.765625,-0.503906 -1.765625,-1.515625 0,-3.25 2.515625,-6.648437 7.546875,-10.203125 4.769531,-3.351562 8.859375,-5.03125 12.265625,-5.03125 2.070312,0 3.78125,0.789062 5.125,2.359375 1.351562,1.574219 2.03125,3.402344 2.03125,5.484375 0,4.929688 -2.589844,11.921875 -7.765625,20.984375 -5.179687,9.054687 -7.765625,15.945313 -7.765625,20.671875 0,2.886719 0.679688,4.328125 2.046875,4.328125 4.0625,0 10.023437,-5.554687 17.890625,-16.671875 5.582031,-7.8125 10.28125,-15.425781 14.09375,-22.84375 0.914062,-2.03125 2.414062,-5.023438 4.5,-8.984375 2.070312,-3.550781 4.40625,-5.328125 7,-5.328125 1.875,0 3.394531,0.789062 4.5625,2.359375 1.019531,1.46875 1.53125,3.167969 1.53125,5.09375 z m 0,0"
       transform="translate(509.72153,380.55774)"
       id="path14" />
    <path
       d="m 52.46875,-131.28125 c 0,0.40625 -0.28125,1.12109 -0.84375,2.14063 -0.554688,1.01171 -1.414062,2.50781 -2.578125,4.48437 -1.679687,1.73047 -3.789063,4.52344 -6.328125,8.375 -0.199219,0.51172 -0.859375,2.71875 -1.984375,6.625 l -4.5625,16.140625 c -2.949219,10.5625 -7.214844,26.199219 -12.796875,46.90625 -4.5625,16.90625 -6.84375,25.5625 -6.84375,25.96875 0,1.117187 0.9375,2.132813 2.8125,3.046875 1.625,0.761719 3.046875,1.140625 4.265625,1.140625 0.707031,0 1.71875,-0.238281 3.03125,-0.71875 1.320313,-0.476563 2.34375,-0.71875 3.0625,-0.71875 1.570313,0 2.359375,0.8125 2.359375,2.4375 0,2.585937 -2.71875,5.855469 -8.15625,9.8125 C 18.675781,-1.878906 14.664062,0 11.875,0 5.738281,0 2.671875,-2.640625 2.671875,-7.921875 c 0,-1.726563 1.492187,-8.070313 4.484375,-19.03125 1.925781,-6.90625 3.859375,-13.8125 5.796875,-20.71875 L 21.78125,-81.40625 c 1.820312,-5.832031 3.625,-11.695312 5.40625,-17.59375 2.6875,-8.67578 4.03125,-14.12891 4.03125,-16.35938 0,-1.625 -1.476562,-3.375 -4.421875,-5.25 -2.9375,-1.88281 -4.40625,-3.17968 -4.40625,-3.89062 0,-0.91406 0.863281,-1.52344 2.59375,-1.82813 2.789063,-0.15625 6.898437,-0.66406 12.328125,-1.53125 0.707031,-0.19531 2.96875,-1.10937 6.78125,-2.73437 3.195312,-1.375 5.328125,-2.0625 6.390625,-2.0625 1.320313,0 1.984375,0.46094 1.984375,1.375 z m 0,0"
       transform="translate(579.09031,380.55774)"
       id="path15" />
    <path
       d="m 53.15625,-55.125 c 0,14.105469 -4.1875,28.621094 -12.5625,43.546875 -7.929688,14.0625 -17.828125,25.640625 -29.703125,34.734375 -11.625,8.875 -25.078125,13.3125 -40.359375,13.3125 -3.5,0 -7.003906,-0.914062 -10.515625,-2.734375 -4.207031,-2.136719 -6.3125,-4.777344 -6.3125,-7.921875 0,-1.730469 1.21875,-2.59375 3.65625,-2.59375 h 0.453125 c 4.3125,3.15625 6.902344,4.957031 7.765625,5.40625 3.25,1.9375 6.195313,2.90625 8.828125,2.90625 14.929688,0 28.378906,-9.777344 40.359375,-29.328125 4.46875,-7.300781 6.703125,-15.039063 6.703125,-23.21875 0,-3.90625 -0.507812,-8.78125 -1.515625,-14.625 -1.167969,-6.800781 -2.539063,-11.316406 -4.109375,-13.546875 -0.05469,-0.05078 -1.625,-1.675781 -4.71875,-4.875 -1.585938,-1.570312 -2.375,-3.726562 -2.375,-6.46875 0,-3.351562 2.207031,-5.03125 6.625,-5.03125 3,0 5.460938,1.699219 7.390625,5.09375 1.019531,1.835938 2.46875,9.199219 4.34375,22.09375 1.726563,11.417969 3.707031,17.585938 5.9375,18.5 3.351563,-0.457031 6.222656,-5.28125 8.609375,-14.46875 1.820312,-7.257812 2.734375,-13.453125 2.734375,-18.578125 0,-0.96875 -0.125,-2.425781 -0.375,-4.375 -0.25,-1.957031 -0.375,-3.421875 -0.375,-4.390625 0,-2.582031 1.316406,-3.875 3.953125,-3.875 3.707031,0 5.5625,3.480469 5.5625,10.4375 z m 0,0"
       transform="translate(622.49339,380.55774)"
       id="path16" />
    <path
       d="M 29.390625,-3.734375 C 29.390625,2.460938 26.316406,8 20.171875,12.875 15.148438,16.832031 9.1875,19.695312 2.28125,21.46875 1.007812,20.96875 0.375,20.003906 0.375,18.578125 c 0,-0.355469 0.101562,-0.835937 0.3125,-1.4375 3.851562,-1.429687 7.203125,-3.414063 10.046875,-5.953125 3.5,-3.148438 5.25,-6.46875 5.25,-9.96875 0,-2.6875 -1.296875,-4.753906 -3.890625,-6.203125 -2.585938,-1.445313 -3.875,-3.210937 -3.875,-5.296875 0,-2.28125 0.863281,-4.207031 2.59375,-5.78125 1.726562,-1.570312 3.757812,-2.359375 6.09375,-2.359375 3.757812,0 6.832031,1.546875 9.21875,4.640625 2.175781,2.84375 3.265625,6.195312 3.265625,10.046875 z m 0,0"
       transform="translate(683.33381,380.55774)"
       id="path17" />
  </g>
</svg>
