<svg height="1000" preserveAspectRatio="xMidYMid meet" viewBox="0 0 750 749.999995" width="1000" xmlns="http://www.w3.org/2000/svg" zoomAndPan="magnify"><path d="m40.046875 1.703125c-5.273437 0-10.023437-.511719-14.25-1.53125-4.21875-1.007813-7.871094-2.523437-10.953125-4.546875-3.085938-2.03125-5.480469-4.585938-7.1875-7.671875-1.699219-3.082031-2.75-6.65625-3.15625-10.71875l17.28125-5.71875c.25 3.492187 1.203125 6.371094 2.859375 8.640625 1.664063 2.273438 3.9375 3.960938 6.8125 5.0625 2.882813 1.09375 6.070313 1.640625 9.5625 1.640625 3.332031 0 6.132813-.425781 8.40625-1.28125 2.269531-.851563 3.992187-1.925781 5.171875-3.21875 1.175781-1.300781 1.765625-2.722656 1.765625-4.265625 0-1.789062-.773437-3.269531-2.3125-4.4375-1.542969-1.175781-3.652344-2.191406-6.328125-3.046875-2.679688-.851563-5.761719-1.6875-9.25-2.5-4.0625-.96875-8-2.039063-11.8125-3.21875-3.8125-1.175781-7.304688-2.65625-10.46875-4.4375-3.167969-1.789063-5.664062-4.125-7.484375-7-1.824219-2.882813-2.734375-6.519531-2.734375-10.90625 0-4.945313 1.253906-9.242187 3.765625-12.890625 2.519531-3.65625 6.210937-6.515625 11.078125-8.578125 4.863281-2.070313 10.828125-3.109375 17.890625-3.109375 6.976563 0 12.941406 1.015625 17.890625 3.046875 4.957031 2.023437 8.773438 4.882813 11.453125 8.578125 2.675781 3.6875 4.09375 7.929688 4.25 12.71875l-17.53125 4.859375c0-2.351563-.386719-4.421875-1.15625-6.203125-.773437-1.789062-1.828125-3.269531-3.171875-4.4375-1.335938-1.175781-3.015625-2.066406-5.046875-2.671875-2.023437-.613281-4.292969-.921875-6.8125-.921875-3.085937 0-5.664063.34375-7.734375 1.03125-2.0625.6875-3.640625 1.621094-4.734375 2.796875-1.09375 1.179687-1.640625 2.539063-1.640625 4.078125 0 1.949219.828125 3.554688 2.484375 4.8125 1.664063 1.261719 3.914063 2.320312 6.75 3.171875 2.84375.84375 6.007813 1.671875 9.5 2.484375 3.488281.730469 7.078125 1.640625 10.765625 2.734375 3.695312 1.09375 7.171875 2.558594 10.421875 4.390625 3.25 1.824219 5.84375 4.234375 7.78125 7.234375 1.945313 3 2.921875 6.8125 2.921875 11.4375 0 5.03125-1.320312 9.398437-3.953125 13.09375-2.636719 3.6875-6.574219 6.527344-11.8125 8.515625-5.230469 1.988281-11.65625 2.984375-19.28125 2.984375zm0 0" fill="#e99dff" transform="translate(119.588524 473.712845)"/><path d="m30.1875 0v-24.953125l-29.703125-55.375h23.609375l15.703125 37.84375h.609375l15.703125-37.84375h23.375l-29.578125 55.125v25.203125zm0 0" fill="#e99dff" transform="translate(198.580033 473.712845)"/><path d="m17.28125 0v-15.9375h23c2.519531 0 4.9375-.363281 7.25-1.09375 2.3125-.738281 4.335938-2 6.078125-3.78125 1.75-1.78125 3.128906-4.234375 4.140625-7.359375 1.019531-3.125 1.53125-7.039063 1.53125-11.75 0-4.539063-.492188-8.375-1.46875-11.5-.96875-3.125-2.351562-5.660156-4.140625-7.609375-1.78125-1.945312-4.011719-3.328125-6.6875-4.140625-2.679687-.8125-5.71875-1.21875-9.125-1.21875h-20.578125v-15.9375h19.84375c9.894531 0 17.988281 1.585937 24.28125 4.75 6.289062 3.15625 10.914062 7.679687 13.875 13.5625 2.957031 5.886719 4.4375 12.929687 4.4375 21.125 0 6.324219-.773438 11.796875-2.3125 16.421875-1.542969 4.625-3.589844 8.5-6.140625 11.625-2.554687 3.125-5.515625 5.640625-8.890625 7.546875-3.367188 1.90625-6.898438 3.265625-10.59375 4.078125-3.6875.8125-7.320312 1.21875-10.890625 1.21875zm-9.125 0v-80.328125h19.59375v80.328125zm0 0" fill="#e99dff" transform="translate(278.18009 473.712845)"/><path d="m8.15625 0v-80.328125h25.5625l33.953125 53.921875h1.21875l-.96875-53.921875h19.109375v80.328125h-23.25l-36.265625-56.84375h-1.34375l1.09375 56.84375zm0 0" fill="#e99dff" transform="translate(362.770356 473.712845)"/><path d="m8.15625 0v-80.328125h19.71875v80.328125zm14.234375 0v-15.9375h48.9375v15.9375zm0-33.34375v-14.25h42.84375v14.25zm0-31.171875v-15.8125h48.6875v15.8125zm0 0" fill="#e99dff" transform="translate(457.584511 473.712845)"/><path d="m30.1875 0v-24.953125l-29.703125-55.375h23.609375l15.703125 37.84375h.609375l15.703125-37.84375h23.375l-29.578125 55.125v25.203125zm0 0" fill="#e99dff" transform="translate(533.168049 473.712845)"/><g fill="#1f2723"><path d="m53.15625-55.125c0 14.105469-4.1875 28.621094-12.5625 43.546875-7.929688 14.0625-17.828125 25.640625-29.703125 34.734375-11.625 8.875-25.078125 13.3125-40.359375 13.3125-3.5 0-7.003906-.914062-10.515625-2.734375-4.207031-2.136719-6.3125-4.777344-6.3125-7.921875 0-1.730469 1.21875-2.59375 3.65625-2.59375h.453125c4.3125 3.15625 6.902344 4.957031 7.765625 5.40625 3.25 1.9375 6.195313 2.90625 8.828125 2.90625 14.929688 0 28.378906-9.777344 40.359375-29.328125 4.46875-7.300781 6.703125-15.039063 6.703125-23.21875 0-3.90625-.507812-8.78125-1.515625-14.625-1.167969-6.800781-2.539063-11.316406-4.109375-13.546875-.054688-.050781-1.625-1.675781-4.71875-4.875-1.585938-1.570312-2.375-3.726562-2.375-6.46875 0-3.351562 2.207031-5.03125 6.625-5.03125 3 0 5.460938 1.699219 7.390625 5.09375 1.019531 1.835938 2.46875 9.199219 4.34375 22.09375 1.726563 11.417969 3.707031 17.585938 5.9375 18.5 3.351563-.457031 6.222656-5.28125 8.609375-14.46875 1.820312-7.257812 2.734375-13.453125 2.734375-18.578125 0-.96875-.125-2.425781-.375-4.375-.25-1.957031-.375-3.421875-.375-4.390625 0-2.582031 1.316406-3.875 3.953125-3.875 3.707031 0 5.5625 3.480469 5.5625 10.4375zm0 0" transform="translate(64.649778 380.55774)"/><path d="m55.4375-44.921875c0 9.949219-3.324219 19.695313-9.96875 29.234375-7.3125 10.460938-15.71875 15.6875-25.21875 15.6875-6.136719 0-10.828125-2.128906-14.078125-6.390625-2.949219-3.863281-4.421875-8.941406-4.421875-15.234375 0-10.457031 3.171875-20.15625 9.515625-29.09375 7.007813-9.894531 15.539063-14.84375 25.59375-14.84375 12.382813 0 18.578125 6.882812 18.578125 20.640625zm-10.4375-.15625c0-7.507813-2.996094-11.265625-8.984375-11.265625-6.242187 0-12.027344 4.542969-17.359375 13.625-4.773438 8.179688-7.15625 15.640625-7.15625 22.390625 0 6.59375 3.273438 9.890625 9.828125 9.890625 6.75 0 12.535156-4.210938 17.359375-12.640625 4.207031-7.351563 6.3125-14.6875 6.3125-22zm0 0" transform="translate(125.490219 380.55774)"/><path d="m63.96875-58.109375c0 3.054687-1.273438 7.265625-3.8125 12.640625-1.980469 4.117188-3.960938 8.230469-5.9375 12.34375-1.117188 2.792969-2.105469 5.460938-2.96875 8-1.429688 4.210938-2.140625 7.40625-2.140625 9.59375 0 2.992188.6875 4.484375 2.0625 4.484375 1.21875 0 2.90625-1.050781 5.0625-3.15625 2.15625-2.101563 3.789063-3.15625 4.90625-3.15625 1.53125 0 2.296875.609375 2.296875 1.828125 0 3.042969-2.589844 6.390625-7.765625 10.046875-4.875 3.460937-8.9375 5.1875-12.1875 5.1875-2.742187 0-4.109375-1.375-4.109375-4.125 0-2.53125.8125-6.207031 2.4375-11.03125 1.625-4.820313 2.4375-8.503906 2.4375-11.046875 0-1.976562-.539062-2.96875-1.609375-2.96875-1.574219 0-4.339844 2.539062-8.296875 7.609375-5.6875 7.3125-9.648438 12.0625-11.875 14.25-5.179688 5.074219-10 7.609375-14.46875 7.609375-2.1875 0-3.945312-1.015625-5.265625-3.046875-1.117187-1.726563-1.671875-3.757813-1.671875-6.09375 0-5.425781 2.5-12.835937 7.5-22.234375 5-9.394531 7.5-16.019531 7.5-19.875 0-2.382812-.9375-3.578125-2.8125-3.578125-1.574219 0-3.554688 1.007813-5.9375 3.015625-2.386719 2-3.933594 3-4.640625 3-1.179687 0-1.765625-.503906-1.765625-1.515625 0-3.25 2.515625-6.648437 7.546875-10.203125 4.769531-3.351562 8.859375-5.03125 12.265625-5.03125 2.070312 0 3.78125.789062 5.125 2.359375 1.351562 1.574219 2.03125 3.402344 2.03125 5.484375 0 4.929688-2.589844 11.921875-7.765625 20.984375-5.179687 9.054687-7.765625 15.945313-7.765625 20.671875 0 2.886719.679688 4.328125 2.046875 4.328125 4.0625 0 10.023437-5.554687 17.890625-16.671875 5.582031-7.8125 10.28125-15.425781 14.09375-22.84375.914062-2.03125 2.414062-5.023438 4.5-8.984375 2.070312-3.550781 4.40625-5.328125 7-5.328125 1.875 0 3.394531.789062 4.5625 2.359375 1.019531 1.46875 1.53125 3.167969 1.53125 5.09375zm0 0" transform="translate(185.036173 380.55774)"/><path d="m56.8125-59.78125c0 2.492188-.585938 4.980469-1.75 7.46875-1.429688 3.042969-3.257812 4.5625-5.484375 4.5625-1.167969 0-2.4375-1.0625-3.8125-3.1875-1.375-2.132812-2.59375-3.203125-3.65625-3.203125-3.199219 0-8.324219 5.9375-15.375 17.8125-2.542969 4.273437-4.476563 8.414063-5.796875 12.421875l-7.078125 21.390625c-.5625 1.679687-2.542969 2.515625-5.9375 2.515625-1.523437 0-2.820313-.707031-3.890625-2.125-1.0625-1.425781-1.59375-2.925781-1.59375-4.5 0-1.875.863281-5.175781 2.59375-9.90625 2.070312-5.582031 4.148438-11.140625 6.234375-16.671875 2.738281-7.769531 4.109375-13.273437 4.109375-16.515625 0-4.320312-.886719-6.484375-2.65625-6.484375-.511719 0-1.210938.195313-2.09375.578125-.886719.375-1.585938.5625-2.09375.5625-1.21875 0-1.828125-.628906-1.828125-1.890625 0-2.132813 1.269531-4.140625 3.8125-6.015625 2.382813-1.726562 4.664063-2.59375 6.84375-2.59375 4.164063 0 6.25 1.855469 6.25 5.5625 0 1.367188-.335937 3.34375-1 5.9375-.65625 2.585938-.984375 4.5625-.984375 5.9375 0 2.492188.734375 3.734375 2.203125 3.734375 1.019531 0 2.898437-1.828125 5.640625-5.484375 3.65625-4.875 6.550781-8.273438 8.6875-10.203125 4.007812-3.65625 8.046875-5.484375 12.109375-5.484375 4.363281 0 6.546875 1.929688 6.546875 5.78125zm0 0" transform="translate(254.404934 380.55774)"/><path d="m42.796875-54.0625c0 4.71875-.8125 7.078125-2.4375 7.078125-.8125 0-2.820313-1.457031-6.015625-4.375-3.199219-2.914063-5.992188-4.375-8.375-4.375-2.542969 0-4.703125 1.015625-6.484375 3.046875-1.773437 2.023438-2.65625 4.328125-2.65625 6.921875 0 2.1875 1.90625 5.007813 5.71875 8.453125 7 6.242188 10.578125 9.4375 10.734375 9.59375 3.800781 4.117188 5.703125 8.074219 5.703125 11.875 0 4.730469-1.902344 8.617188-5.703125 11.65625-3.511719 2.792969-7.699219 4.1875-12.5625 4.1875-4.011719 0-7.84375-.8125-11.5-2.4375-4.574219-2.082031-6.859375-4.875-6.859375-8.375 0-5.382812.863281-8.078125 2.59375-8.078125.050781 0 .203125.027344.453125.078125 5.632812 5.179688 10.484375 7.765625 14.546875 7.765625 4.769531 0 7.15625-2.101563 7.15625-6.3125 0-1.726563-1.398437-3.988281-4.1875-6.78125-4.367187-4.3125-7.007813-7.050781-7.921875-8.21875-2.792969-3.707031-4.1875-7.566406-4.1875-11.578125 0-5.582031 1.546875-10.457031 4.640625-14.625 3.40625-4.664062 7.796875-7 13.171875-7 1.988281 0 4.425781.585938 7.3125 1.75 3.195312 1.324219 5.203125 2.746094 6.015625 4.265625.5625 1.0625.84375 2.890625.84375 5.484375zm0 0" transform="translate(312.580266 380.55774)"/><path d="m47.28125-63.4375c0 4.167969-2.96875 6.25-8.90625 6.25-.90625 0-2.261719-.070312-4.0625-.21875-1.804688-.15625-3.164062-.234375-4.078125-.234375-2.792969 0-4.796875 1.167969-6.015625 3.5-.355469.710937-1.070312 3.070313-2.140625 7.078125l-7.984375 30.234375c-.105469.40625-.15625.867187-.15625 1.375 0 2.992187 1.394531 4.484375 4.1875 4.484375 2.4375 0 4.910156-1.9375 7.421875-5.8125 2.507813-3.882812 4.53125-5.828125 6.0625-5.828125 2.382813 0 3.578125 1.0625 3.578125 3.1875 0 2.4375-1.554688 5.917969-4.65625 10.4375-4.105469 5.992187-9.839844 8.984375-17.203125 8.984375-2.6875 0-5.125-.835938-7.3125-2.515625-2.4375-1.769531-3.65625-3.953125-3.65625-6.546875 0-4.46875 3.222656-17.3125 9.671875-38.53125 1.269531-4.164062 1.90625-6.675781 1.90625-7.53125 0-1.175781-1.09375-1.835938-3.28125-1.984375 1.570312.105469.078125.15625-4.484375.15625-2.085937 0-3.125-.785156-3.125-2.359375 0-2.894531 1.21875-4.722656 3.65625-5.484375 1.21875-.40625 3.65625-.609375 7.3125-.609375 2.738281 0 4.789063-2.03125 6.15625-6.09375 1.582031-4.71875 2.726563-7.304688 3.4375-7.765625 1.007813-.664063 2.707031-1 5.09375-1 2.289063 0 3.4375.714844 3.4375 2.140625 0 1.117188-.460937 2.6875-1.375 4.71875-.917969 2.03125-1.375 3.605469-1.375 4.71875 0 2.492188 1.421875 3.734375 4.265625 3.734375 1.320312 0 3.300781-.097656 5.9375-.296875 2.644531-.207031 4.625-.3125 5.9375-.3125 1.164062 0 1.75.710938 1.75 2.125zm0 0" transform="translate(400.909285 380.55774)"/><path d="m56.8125-59.78125c0 2.492188-.585938 4.980469-1.75 7.46875-1.429688 3.042969-3.257812 4.5625-5.484375 4.5625-1.167969 0-2.4375-1.0625-3.8125-3.1875-1.375-2.132812-2.59375-3.203125-3.65625-3.203125-3.199219 0-8.324219 5.9375-15.375 17.8125-2.542969 4.273437-4.476563 8.414063-5.796875 12.421875l-7.078125 21.390625c-.5625 1.679687-2.542969 2.515625-5.9375 2.515625-1.523437 0-2.820313-.707031-3.890625-2.125-1.0625-1.425781-1.59375-2.925781-1.59375-4.5 0-1.875.863281-5.175781 2.59375-9.90625 2.070312-5.582031 4.148438-11.140625 6.234375-16.671875 2.738281-7.769531 4.109375-13.273437 4.109375-16.515625 0-4.320312-.886719-6.484375-2.65625-6.484375-.511719 0-1.210938.195313-2.09375.578125-.886719.375-1.585938.5625-2.09375.5625-1.21875 0-1.828125-.628906-1.828125-1.890625 0-2.132813 1.269531-4.140625 3.8125-6.015625 2.382813-1.726562 4.664063-2.59375 6.84375-2.59375 4.164063 0 6.25 1.855469 6.25 5.5625 0 1.367188-.335937 3.34375-1 5.9375-.65625 2.585938-.984375 4.5625-.984375 5.9375 0 2.492188.734375 3.734375 2.203125 3.734375 1.019531 0 2.898437-1.828125 5.640625-5.484375 3.65625-4.875 6.550781-8.273438 8.6875-10.203125 4.007812-3.65625 8.046875-5.484375 12.109375-5.484375 4.363281 0 6.546875 1.929688 6.546875 5.78125zm0 0" transform="translate(451.546199 380.55774)"/><path d="m63.96875-58.109375c0 3.054687-1.273438 7.265625-3.8125 12.640625-1.980469 4.117188-3.960938 8.230469-5.9375 12.34375-1.117188 2.792969-2.105469 5.460938-2.96875 8-1.429688 4.210938-2.140625 7.40625-2.140625 9.59375 0 2.992188.6875 4.484375 2.0625 4.484375 1.21875 0 2.90625-1.050781 5.0625-3.15625 2.15625-2.101563 3.789063-3.15625 4.90625-3.15625 1.53125 0 2.296875.609375 2.296875 1.828125 0 3.042969-2.589844 6.390625-7.765625 10.046875-4.875 3.460937-8.9375 5.1875-12.1875 5.1875-2.742187 0-4.109375-1.375-4.109375-4.125 0-2.53125.8125-6.207031 2.4375-11.03125 1.625-4.820313 2.4375-8.503906 2.4375-11.046875 0-1.976562-.539062-2.96875-1.609375-2.96875-1.574219 0-4.339844 2.539062-8.296875 7.609375-5.6875 7.3125-9.648438 12.0625-11.875 14.25-5.179688 5.074219-10 7.609375-14.46875 7.609375-2.1875 0-3.945312-1.015625-5.265625-3.046875-1.117187-1.726563-1.671875-3.757813-1.671875-6.09375 0-5.425781 2.5-12.835937 7.5-22.234375 5-9.394531 7.5-16.019531 7.5-19.875 0-2.382812-.9375-3.578125-2.8125-3.578125-1.574219 0-3.554688 1.007813-5.9375 3.015625-2.386719 2-3.933594 3-4.640625 3-1.179687 0-1.765625-.503906-1.765625-1.515625 0-3.25 2.515625-6.648437 7.546875-10.203125 4.769531-3.351562 8.859375-5.03125 12.265625-5.03125 2.070312 0 3.78125.789062 5.125 2.359375 1.351562 1.574219 2.03125 3.402344 2.03125 5.484375 0 4.929688-2.589844 11.921875-7.765625 20.984375-5.179687 9.054687-7.765625 15.945313-7.765625 20.671875 0 2.886719.679688 4.328125 2.046875 4.328125 4.0625 0 10.023437-5.554687 17.890625-16.671875 5.582031-7.8125 10.28125-15.425781 14.09375-22.84375.914062-2.03125 2.414062-5.023438 4.5-8.984375 2.070312-3.550781 4.40625-5.328125 7-5.328125 1.875 0 3.394531.789062 4.5625 2.359375 1.019531 1.46875 1.53125 3.167969 1.53125 5.09375zm0 0" transform="translate(509.721531 380.55774)"/><path d="m52.46875-131.28125c0 .40625-.28125 1.121094-.84375 2.140625-.554688 1.011719-1.414062 2.507813-2.578125 4.484375-1.679687 1.730469-3.789063 4.523438-6.328125 8.375-.199219.511719-.859375 2.71875-1.984375 6.625l-4.5625 16.140625c-2.949219 10.5625-7.214844 26.199219-12.796875 46.90625-4.5625 16.90625-6.84375 25.5625-6.84375 25.96875 0 1.117187.9375 2.132813 2.8125 3.046875 1.625.761719 3.046875 1.140625 4.265625 1.140625.707031 0 1.71875-.238281 3.03125-.71875 1.320313-.476563 2.34375-.71875 3.0625-.71875 1.570313 0 2.359375.8125 2.359375 2.4375 0 2.585937-2.71875 5.855469-8.15625 9.8125-5.230469 3.761719-9.242188 5.640625-12.03125 5.640625-6.136719 0-9.203125-2.640625-9.203125-7.921875 0-1.726563 1.492187-8.070313 4.484375-19.03125 1.925781-6.90625 3.859375-13.8125 5.796875-20.71875l8.828125-33.734375c1.820312-5.832031 3.625-11.695312 5.40625-17.59375 2.6875-8.675781 4.03125-14.128906 4.03125-16.359375 0-1.625-1.476562-3.375-4.421875-5.25-2.9375-1.882813-4.40625-3.179687-4.40625-3.890625 0-.914062.863281-1.523438 2.59375-1.828125 2.789063-.15625 6.898437-.664063 12.328125-1.53125.707031-.195313 2.96875-1.109375 6.78125-2.734375 3.195312-1.375 5.328125-2.0625 6.390625-2.0625 1.320313 0 1.984375.460938 1.984375 1.375zm0 0" transform="translate(579.090309 380.55774)"/><path d="m53.15625-55.125c0 14.105469-4.1875 28.621094-12.5625 43.546875-7.929688 14.0625-17.828125 25.640625-29.703125 34.734375-11.625 8.875-25.078125 13.3125-40.359375 13.3125-3.5 0-7.003906-.914062-10.515625-2.734375-4.207031-2.136719-6.3125-4.777344-6.3125-7.921875 0-1.730469 1.21875-2.59375 3.65625-2.59375h.453125c4.3125 3.15625 6.902344 4.957031 7.765625 5.40625 3.25 1.9375 6.195313 2.90625 8.828125 2.90625 14.929688 0 28.378906-9.777344 40.359375-29.328125 4.46875-7.300781 6.703125-15.039063 6.703125-23.21875 0-3.90625-.507812-8.78125-1.515625-14.625-1.167969-6.800781-2.539063-11.316406-4.109375-13.546875-.054688-.050781-1.625-1.675781-4.71875-4.875-1.585938-1.570312-2.375-3.726562-2.375-6.46875 0-3.351562 2.207031-5.03125 6.625-5.03125 3 0 5.460938 1.699219 7.390625 5.09375 1.019531 1.835938 2.46875 9.199219 4.34375 22.09375 1.726563 11.417969 3.707031 17.585938 5.9375 18.5 3.351563-.457031 6.222656-5.28125 8.609375-14.46875 1.820312-7.257812 2.734375-13.453125 2.734375-18.578125 0-.96875-.125-2.425781-.375-4.375-.25-1.957031-.375-3.421875-.375-4.390625 0-2.582031 1.316406-3.875 3.953125-3.875 3.707031 0 5.5625 3.480469 5.5625 10.4375zm0 0" transform="translate(622.493388 380.55774)"/><path d="m29.390625-3.734375c0 6.195313-3.074219 11.734375-9.21875 16.609375-5.023437 3.957031-10.984375 6.820312-17.890625 8.59375-1.273438-.5-1.90625-1.464844-1.90625-2.890625 0-.355469.101562-.835937.3125-1.4375 3.851562-1.429687 7.203125-3.414063 10.046875-5.953125 3.5-3.148438 5.25-6.46875 5.25-9.96875 0-2.6875-1.296875-4.753906-3.890625-6.203125-2.585938-1.445313-3.875-3.210937-3.875-5.296875 0-2.28125.863281-4.207031 2.59375-5.78125 1.726562-1.570312 3.757812-2.359375 6.09375-2.359375 3.757812 0 6.832031 1.546875 9.21875 4.640625 2.175781 2.84375 3.265625 6.195312 3.265625 10.046875zm0 0" transform="translate(683.333811 380.55774)"/></g></svg>